<?xml version="1.0" standalone="no"?>
<!DOCTYPE svg PUBLIC "-//W3C//DTD SVG 20010904//EN"
 "http://www.w3.org/TR/2001/REC-SVG-20010904/DTD/svg10.dtd">
<svg version="1.0" xmlns="http://www.w3.org/2000/svg"
 width="512.000000pt" height="512.000000pt" viewBox="0 0 512.000000 512.000000"
 preserveAspectRatio="xMidYMid meet">

<g transform="translate(0.000000,512.000000) scale(0.100000,-0.100000)"
fill="#000000" stroke="none">
<path d="M2484 5101 c-94 -57 -107 -158 -28 -232 32 -30 31 -55 -3 -64 -56
-14 -68 -39 -28 -57 20 -9 25 -18 25 -48 0 -21 -7 -43 -15 -50 -10 -8 -15 -31
-15 -66 0 -30 -4 -54 -9 -54 -5 0 -42 13 -83 29 -114 46 -226 65 -338 58 -120
-8 -170 -23 -306 -94 -213 -111 -205 -108 -269 -108 -51 0 -75 7 -162 49 -114
55 -140 56 -200 10 -28 -21 -37 -23 -49 -13 -12 10 -22 7 -57 -17 -55 -39 -57
-62 -11 -113 41 -46 56 -50 77 -20 15 20 16 20 41 4 50 -33 73 -80 68 -137 -3
-24 -35 -23 -57 2 -22 24 -47 25 -80 4 l-24 -16 23 -46 c13 -26 34 -56 46 -67
l22 -20 -24 -5 c-22 -6 -23 -9 -30 -150 -8 -173 -14 -221 -32 -246 -13 -16
-17 -17 -56 -4 -49 16 -62 6 -58 -45 2 -23 11 -33 36 -44 23 -11 31 -20 27
-30 -4 -9 -49 -142 -102 -296 -89 -261 -256 -736 -538 -1531 l-117 -330 -58
-12 c-32 -7 -69 -21 -82 -32 l-23 -19 24 -46 c53 -100 223 -255 375 -340 201
-112 421 -165 688 -165 329 0 617 87 860 260 146 104 291 271 262 300 -5 5
-47 17 -91 26 -55 11 -84 22 -88 33 -72 178 -755 2130 -755 2156 0 7 13 18 30
23 30 11 45 42 38 79 -4 24 -45 29 -67 9 -15 -13 -20 -14 -36 -3 -24 18 -34
85 -34 244 -1 72 -4 138 -7 147 -4 10 -18 16 -38 16 l-31 0 31 19 c18 11 39
30 48 42 23 33 21 126 -5 194 -12 31 -19 58 -17 60 2 3 51 -9 109 -26 61 -19
137 -33 184 -36 75 -4 89 -2 220 42 77 25 171 53 208 61 145 30 286 11 426
-58 82 -41 86 -45 92 -82 4 -21 14 -43 23 -48 16 -9 16 -11 -1 -30 -17 -19
-17 -21 13 -48 l32 -28 -29 -25 -29 -25 0 -1609 0 -1609 -45 -44 c-25 -24 -45
-50 -45 -56 0 -7 11 -26 25 -43 l26 -30 -43 -5 c-24 -3 -88 -8 -143 -11 -193
-12 -426 -61 -482 -100 -13 -9 -23 -27 -23 -40 0 -18 -7 -25 -30 -30 -16 -4
-43 -19 -60 -35 l-31 -29 3 -133 3 -133 56 -28 c69 -34 195 -61 398 -83 225
-25 826 -25 1036 0 232 27 344 54 408 98 l27 19 0 130 0 131 -29 29 c-16 16
-43 32 -59 35 -23 5 -31 13 -36 35 -3 15 -16 35 -29 44 -62 40 -391 95 -570
95 -42 0 -78 4 -81 9 -3 4 6 19 19 31 35 33 31 52 -20 99 l-45 41 0 1609 0
1609 -31 27 -32 26 34 28 c33 28 33 30 17 48 -17 18 -16 20 2 36 13 11 20 29
20 50 0 33 3 35 89 75 109 51 193 72 291 72 95 0 169 -16 345 -75 131 -43 145
-46 220 -42 48 3 122 17 184 36 58 17 107 29 109 26 2 -2 -5 -29 -17 -60 -26
-68 -28 -161 -5 -194 9 -12 30 -31 48 -42 l31 -19 -31 0 c-20 0 -34 -6 -38
-16 -3 -9 -6 -77 -6 -152 -1 -157 -10 -220 -36 -239 -15 -11 -20 -10 -34 2
-27 24 -59 19 -66 -11 -9 -35 10 -72 41 -80 14 -3 25 -10 25 -14 0 -21 -354
-1038 -677 -1944 l-79 -220 -34 -8 c-81 -20 -120 -39 -120 -60 0 -36 57 -112
148 -200 187 -180 418 -290 697 -335 138 -22 432 -13 560 16 278 64 507 184
680 356 77 76 132 155 121 174 -3 5 -44 16 -91 26 -47 10 -88 22 -91 26 -6 11
-381 1064 -526 1479 -176 505 -239 695 -231 698 47 16 58 29 58 67 0 44 8 41
-85 32 -36 -3 -48 43 -55 215 -8 179 -10 188 -37 188 -21 0 -21 1 4 28 29 30
58 84 58 105 0 14 -40 37 -64 37 -7 0 -21 -9 -31 -20 -10 -11 -26 -20 -35 -20
-44 0 -32 76 20 131 42 44 55 48 70 19 15 -28 33 -25 69 12 56 58 49 98 -22
135 -22 11 -32 12 -43 2 -11 -9 -18 -9 -32 3 -26 23 -79 48 -101 48 -12 0 -61
-20 -109 -45 -98 -50 -168 -64 -225 -46 -19 7 -93 43 -164 81 -171 90 -233
110 -363 117 -119 6 -219 -13 -347 -65 l-73 -30 0 58 c0 39 -5 62 -15 70 -8 7
-15 29 -15 50 0 30 5 39 25 48 36 16 31 31 -15 49 -48 19 -51 39 -10 78 58 55
59 144 3 197 -52 50 -108 60 -159 29z m1521 -1127 c23 6 26 4 23 -16 -2 -15
-11 -24 -27 -26 -26 -4 -41 12 -41 43 0 15 2 17 9 6 6 -9 18 -11 36 -7z
m-2877 -19 c-2 -13 -12 -21 -30 -23 -23 -3 -28 0 -28 20 0 19 5 23 30 23 25 0
30 -4 28 -20z m2930 -278 c10 -91 25 -121 68 -137 17 -7 41 -67 123 -307 170
-492 301 -864 585 -1661 42 -117 76 -217 76 -221 0 -5 -24 -4 -52 0 -77 12
-465 47 -598 54 -63 3 -148 8 -188 11 l-74 6 8 1031 c7 989 8 1033 25 1045 23
16 25 94 4 132 -8 15 -14 53 -15 95 0 60 2 67 14 55 8 -8 18 -54 24 -103z
m-2988 44 c0 -32 -7 -75 -15 -94 -23 -55 -20 -113 7 -131 l22 -16 4 -1029 5
-1029 -114 -5 c-63 -4 -215 -11 -339 -17 -124 -6 -277 -17 -340 -25 -63 -8
-116 -15 -117 -15 -3 0 76 229 207 595 192 539 308 869 431 1227 116 341 123
358 143 358 31 0 58 48 67 122 11 94 17 118 29 118 6 0 10 -26 10 -59z m82 18
c4 -19 10 -61 13 -94 6 -52 12 -64 44 -95 35 -32 46 -60 141 -335 89 -260 225
-647 572 -1628 45 -125 78 -230 75 -234 -4 -3 -75 2 -159 11 -223 24 -362 35
-551 45 -92 5 -170 11 -173 13 -2 3 -7 471 -11 1042 -6 958 -5 1036 10 1036
21 0 31 39 23 88 -4 20 -9 72 -13 116 -4 63 -3 78 8 74 8 -3 17 -20 21 -39z
m2814 -36 c-3 -43 -8 -95 -12 -115 -8 -47 2 -88 21 -88 13 0 15 -128 15 -1039
l0 -1038 -77 -7 c-42 -3 -121 -6 -177 -6 -129 0 -367 -16 -520 -35 -66 -8
-121 -13 -123 -11 -4 4 28 99 152 446 156 439 376 1065 486 1384 101 291 117
332 141 345 35 20 46 47 58 144 10 83 15 97 32 97 7 0 8 -27 4 -77z"/>
</g>
</svg>
